<?xml version="1.0" standalone="no"?><svg xmlns="http://www.w3.org/2000/svg" viewBox="0 0 1440 320"><path fill="rgb(101 163 13)" fill-opacity="1" d="M0,288L16,293.3C32,299,64,309,96,277.3C128,245,160,171,192,122.7C224,75,256,53,288,42.7C320,32,352,32,384,64C416,96,448,160,480,181.3C512,203,544,181,576,181.3C608,181,640,203,672,213.3C704,224,736,224,768,192C800,160,832,96,864,58.7C896,21,928,11,960,26.7C992,43,1024,85,1056,133.3C1088,181,1120,235,1152,240C1184,245,1216,203,1248,181.3C1280,160,1312,160,1344,170.7C1376,181,1408,203,1424,213.3L1440,224L1440,0L1424,0C1408,0,1376,0,1344,0C1312,0,1280,0,1248,0C1216,0,1184,0,1152,0C1120,0,1088,0,1056,0C1024,0,992,0,960,0C928,0,896,0,864,0C832,0,800,0,768,0C736,0,704,0,672,0C640,0,608,0,576,0C544,0,512,0,480,0C448,0,416,0,384,0C352,0,320,0,288,0C256,0,224,0,192,0C160,0,128,0,96,0C64,0,32,0,16,0L0,0Z"></path></svg>